<svg width="26" height="20" viewBox="0 0 26 20" fill="none" xmlns="http://www.w3.org/2000/svg">
<path d="M24.8829 3.98933C24.7485 3.45211 24.4746 2.9599 24.089 2.56239C23.7035 2.16489 23.2198 1.87618 22.6869 1.72542C20.74 1.25 12.9521 1.25 12.9521 1.25C12.9521 1.25 5.1643 1.25 3.21734 1.7707C2.68447 1.92146 2.20082 2.21017 1.81524 2.60767C1.42966 3.00518 1.15581 3.49739 1.02135 4.03461C0.665023 6.01049 0.490727 8.0149 0.500647 10.0226C0.487946 12.0455 0.662253 14.0652 1.02135 16.056C1.16959 16.5765 1.44957 17.05 1.83425 17.4307C2.21893 17.8114 2.6953 18.0865 3.21734 18.2293C5.1643 18.75 12.9521 18.75 12.9521 18.75C12.9521 18.75 20.74 18.75 22.6869 18.2293C23.2198 18.0785 23.7035 17.7898 24.089 17.3923C24.4746 16.9948 24.7485 16.5026 24.8829 15.9654C25.2365 14.0044 25.4108 12.0153 25.4036 10.0226C25.4163 7.99979 25.242 5.98009 24.8829 3.98933V3.98933Z" stroke="white" stroke-linecap="round" stroke-linejoin="round"/>
<path d="M10.4054 13.7243L16.9141 10.0228L10.4054 6.32129V13.7243Z" stroke="white" stroke-linecap="round" stroke-linejoin="round"/>
</svg>
