<svg width="20" height="20" viewBox="0 0 20 20" fill="none" xmlns="http://www.w3.org/2000/svg">
<path d="M14.375 1.25H5.625C3.20875 1.25 1.25 3.20875 1.25 5.625V14.375C1.25 16.7912 3.20875 18.75 5.625 18.75H14.375C16.7912 18.75 18.75 16.7912 18.75 14.375V5.625C18.75 3.20875 16.7912 1.25 14.375 1.25Z" stroke="white" stroke-linecap="round" stroke-linejoin="round"/>
<path d="M13.4998 9.44852C13.6078 10.1767 13.4834 10.9205 13.1443 11.5739C12.8053 12.2274 12.2688 12.7573 11.6112 13.0882C10.9536 13.4192 10.2084 13.5344 9.48162 13.4175C8.75479 13.3005 8.08334 12.9573 7.56279 12.4368C7.04223 11.9162 6.69907 11.2448 6.58211 10.518C6.46516 9.79113 6.58036 9.04593 6.91134 8.38835C7.24232 7.73077 7.77222 7.1943 8.42567 6.85524C9.07911 6.51617 9.82284 6.39179 10.5511 6.49978C11.2939 6.60992 11.9815 6.95606 12.5125 7.48704C13.0435 8.01803 13.3897 8.70572 13.4998 9.44852Z" stroke="white" stroke-linecap="round" stroke-linejoin="round"/>
<path d="M14.8124 5.1875H14.8211" stroke="white" stroke-linecap="round" stroke-linejoin="round"/>
</svg>
