<svg width="101" height="50" viewBox="0 0 101 50" fill="none" xmlns="http://www.w3.org/2000/svg">
<g clip-path="url(#clip0_3193_39674)">
<path d="M13.5701 49.7104H11.7612L10.6078 47.465H3.89332L2.74395 49.7104H0.93103L6.20785 39.6738H8.28936L13.5701 49.7104ZM9.80802 45.9668L7.26441 41.0966L4.69709 45.9589L9.80802 45.9668Z" fill="#2A3241"/>
<path d="M28.8101 49.7104H27.1572V41.5039H27.1157L21.9356 48.0512L16.801 41.5079H16.7595V49.7144H15.1066V39.6738H17.1723L21.9534 45.7383L26.7543 39.6738H28.8141L28.8101 49.7104Z" fill="#2A3241"/>
<path d="M42.9817 49.7104H41.1728L40.0333 47.465H33.3187L32.1694 49.7104H30.3564L35.6333 39.6738H37.7148L42.9817 49.7104ZM39.2295 45.9668L36.676 41.0966L34.1087 45.9589L39.2295 45.9668Z" fill="#2A3241"/>
<path d="M57.0289 49.7104H55.1054L52.4058 45.8833H47.3699V49.7104H45.7169V39.6738H53.5847C54.6314 39.6738 55.453 39.958 56.0494 40.5263C56.6458 41.0946 56.9446 41.8642 56.946 42.8352C56.946 43.6857 56.7024 44.3692 56.2153 44.8858C55.715 45.3928 55.0597 45.7155 54.3549 45.8019L57.0289 49.7104ZM53.3359 44.3871C54.6117 44.3871 55.2502 43.8698 55.2515 42.8352C55.2515 41.7264 54.5623 41.1714 53.1839 41.1701H47.3699V44.3871H53.3359Z" fill="#2A3241"/>
<path d="M72.4881 44.673C72.4881 46.317 71.8173 47.6476 70.4757 48.665C69.3013 49.5512 67.8406 49.995 66.0935 49.9963C64.3464 49.9976 62.8771 49.5492 61.6856 48.6511C60.3453 47.6337 59.6745 46.309 59.6732 44.677C59.6732 43.0675 60.3532 41.7428 61.7133 40.7029C62.9061 39.7968 64.3661 39.3438 66.0935 39.3438C67.8208 39.3438 69.277 39.7968 70.4619 40.7029C71.8127 41.7454 72.4881 43.0688 72.4881 44.673ZM70.766 44.673C70.766 43.4993 70.2697 42.5469 69.277 41.8156C68.4238 41.1877 67.3627 40.8738 66.0935 40.8738C64.7071 40.8738 63.5775 41.2321 62.7046 41.9488C62.2982 42.2772 61.9697 42.6927 61.7431 43.1651C61.5165 43.6375 61.3976 44.1548 61.395 44.6793C61.3923 45.2038 61.506 45.7223 61.7278 46.197C61.9496 46.6716 62.2739 47.0905 62.677 47.4231C63.5327 48.1225 64.6716 48.4716 66.0935 48.4702C67.5154 48.4689 68.6476 48.1179 69.4902 47.4171C69.9005 47.0912 70.2295 46.6734 70.451 46.197C70.6725 45.7206 70.7804 45.1988 70.766 44.673V44.673Z" fill="#2A3241"/>
<path d="M84.8625 42.0309C83.469 41.2965 81.9211 40.9081 80.348 40.8982C79.3289 40.8982 78.5482 41.0181 78.0058 41.2579C77.4634 41.4977 77.1921 41.8288 77.1921 42.2514C77.1921 42.6952 77.4818 43.0184 78.0611 43.2211C78.7201 43.4091 79.4004 43.5113 80.0853 43.5251C81.4638 43.6178 82.3735 43.692 82.8146 43.7477C84.0627 43.9146 84.9843 44.2246 85.5794 44.6776C85.8735 44.9006 86.1088 45.1926 86.2648 45.5283C86.4208 45.864 86.4926 46.233 86.474 46.6031C86.474 47.6628 86.0059 48.4854 85.0699 49.071C84.1338 49.6565 82.7882 49.9479 81.0332 49.9453C78.4883 49.9453 76.5088 49.3809 75.0948 48.2523L76.0033 47.0482C77.5171 47.9945 79.2648 48.4937 81.0471 48.4888C82.2122 48.4888 83.1167 48.3271 83.7605 48.0039C84.3767 47.69 84.6848 47.2601 84.6848 46.7143C84.6848 46.0771 84.2806 45.6519 83.4722 45.4386C83.0496 45.3274 81.9101 45.2121 80.0537 45.0929C78.4106 44.9816 77.258 44.7597 76.5957 44.4272C75.8256 44.0404 75.4398 43.3887 75.4385 42.472C75.4385 41.5301 75.8769 40.7863 76.7537 40.2405C77.6306 39.6948 78.8688 39.4219 80.4684 39.4219C82.6171 39.4219 84.4175 39.9166 85.8697 40.9062L84.8625 42.0309Z" fill="#2A3241"/>
<path d="M100.069 49.7104H88.9505V39.6738H100.069V41.1701H90.6035V43.7532H100.069V45.2515H90.6035V48.2181H100.069V49.7104Z" fill="#2A3241"/>
<path d="M57.2975 23.6521L60.8344 29.7027H56.31L49.1413 17.542H43.2345V29.7027H39.2848V13.6076H46.8465L43.2464 7.51533L39.2966 0.809054V0.00231473H52.9488C54.0946 -0.00816999 55.2311 0.209446 56.2929 0.642634C57.3547 1.07582 58.3209 1.71603 59.1359 2.52641C59.9508 3.33679 60.5985 4.30134 61.0415 5.36454C61.4845 6.42775 61.7141 7.56861 61.7172 8.72147C61.7196 10.2307 61.3295 11.7144 60.5857 13.025C59.8418 14.3357 58.7702 15.4277 57.4772 16.1928L55.526 12.8962C56.2256 12.4692 56.8033 11.8672 57.203 11.1488C57.6027 10.4305 57.8108 9.62024 57.807 8.79697C57.805 8.1577 57.677 7.52517 57.4306 6.93593C57.1842 6.3467 56.8242 5.81243 56.3713 5.36401C55.9185 4.91559 55.3819 4.56191 54.7924 4.3234C54.2029 4.08488 53.5723 3.96627 52.937 3.97441H45.63L50.2847 11.8014L57.2975 23.6521Z" fill="#2A3241"/>
</g>
<defs>
<clipPath id="clip0_3193_39674">
<rect width="99.1379" height="50" fill="white" transform="translate(0.93103)"/>
</clipPath>
</defs>
</svg>
